# xmcd
#
# Track frame offsets:
#	150
#	12125
#	29175
#	47505
#	62220
#	72585
#	89310
#	102265
#	114125
#	133065
#	148350
#	162750
#
# Disc length: 2396 seconds
#
# Revision: 0
# Processed by: cddbd v1.5.2PL0 Copyright (c) Steve Scherf et al.
# Submitted via: EasyCDDAExtractor 10.2.0.1
#
DISCID=aa095a0c
DTITLE=Various Artist - Texas International Music Assoc.
DYEAR=2004
DGENRE=Gospel
TTITLE0=Porter Wagner and Al Brumley - Rank Strangers
TTITLE1=Gala Earlene - Thank You Lord
TTITLE2=Joe Paul Nichols - Where The Roses Never Fade
TTITLE3=Otha Geeslin - In The Heart
TTITLE4=Andy Mayes - I Found My Place In The Sun
TTITLE5=Joe Price - Take The Crossroad
TTITLE6=Jimmy Fautheree - From The Bottle To The Bible
TTITLE7=Glorya Wilson - Thank You Lord For Your Letter
TTITLE8=Gary Smith - Here We Are
TTITLE9=Gene Crain - What A Friend
TTITLE10=Shelia Lewis - CPR
TTITLE11=Tina Sadler - He Had Mercy On Me
EXTD=
EXTT0=
EXTT1=
EXTT2=
EXTT3=
EXTT4=
EXTT5=
EXTT6=
EXTT7=
EXTT8=
EXTT9=
EXTT10=
EXTT11=
PLAYORDER=
